<?xml version="1.0" standalone="no"?>
<!DOCTYPE svg PUBLIC "-//W3C//DTD SVG 20010904//EN"
 "http://www.w3.org/TR/2001/REC-SVG-20010904/DTD/svg10.dtd">
<svg version="1.0" xmlns="http://www.w3.org/2000/svg"
 width="598.000000pt" height="417.000000pt" viewBox="0 0 598.000000 417.000000"
 preserveAspectRatio="xMidYMid meet">

<g transform="translate(0.000000,417.000000) scale(0.100000,-0.100000)"
fill="#000000" stroke="none">
<path d="M2770 3709 c-564 -60 -1078 -457 -1288 -994 -78 -201 -106 -352 -106
-580 0 -332 85 -613 265 -883 232 -347 590 -584 1019 -673 151 -32 439 -32
590 0 348 72 618 223 859 477 469 496 562 1252 228 1849 -157 282 -422 531
-704 662 -271 126 -564 174 -863 142z m310 -30 c147 -13 239 -32 369 -76 84
-28 253 -102 269 -118 2 -2 -9 -25 -25 -52 -16 -26 -38 -63 -48 -81 -19 -32
-21 -33 -65 -26 -25 4 -166 8 -315 9 l-270 2 -80 41 c-116 59 -175 80 -304
108 -63 14 -117 27 -119 29 -2 2 -1 26 3 53 l7 50 78 21 c70 19 164 34 285 44
80 7 102 7 215 -4z m-520 -215 c154 -29 412 -130 426 -168 6 -15 -22 -313 -37
-402 l-10 -61 -62 -35 c-34 -20 -161 -93 -282 -162 l-219 -127 -56 22 c-30 12
-129 53 -219 92 l-164 71 6 110 c3 61 11 136 17 166 12 58 75 257 88 276 24
37 370 234 412 234 10 0 55 -7 100 -16z m1264 -46 c303 -205 528 -517 621
-862 l25 -90 -33 -28 c-17 -15 -34 -27 -37 -28 -3 0 -23 23 -44 50 -55 72
-162 168 -261 234 -46 31 -90 59 -97 61 -7 3 -31 40 -53 83 -110 214 -183 332
-261 426 l-33 38 26 42 c14 22 37 58 50 79 13 20 26 37 29 37 4 0 34 -19 68
-42z m-1864 -155 c25 -9 46 -17 47 -18 1 0 -9 -34 -23 -74 -47 -136 -65 -223
-71 -351 l-5 -125 -83 -125 c-98 -148 -142 -228 -186 -332 l-32 -78 -98 0 -99
0 0 68 c0 85 32 264 66 374 51 165 170 384 282 518 52 63 144 160 151 160 3 0
26 -8 51 -17z m1183 -567 c338 -192 399 -229 404 -243 3 -7 2 -155 -2 -328
l-7 -314 -132 -79 c-136 -82 -259 -151 -383 -215 l-72 -38 -93 54 c-51 30
-165 96 -253 147 -88 51 -172 99 -186 107 -27 13 -27 16 -34 146 -3 72 -3 226
2 341 l8 209 100 57 c55 31 179 102 275 158 96 56 179 101 183 102 5 0 91 -47
190 -104z m1007 -82 c60 -46 159 -146 208 -210 29 -38 31 -46 38 -160 3 -66 3
-169 -1 -228 l-7 -108 -132 -132 c-82 -83 -162 -153 -216 -188 l-84 -56 -58
40 c-32 22 -115 84 -185 137 l-128 96 -2 330 -3 330 103 77 c56 42 142 104
191 136 l90 60 65 -41 c36 -22 91 -60 121 -83z m-2525 -531 c41 -112 148 -315
213 -403 l69 -96 6 -122 c8 -142 27 -245 67 -352 l28 -77 -57 -18 -56 -18 -68
74 c-152 166 -292 406 -352 603 -43 142 -77 372 -66 449 1 4 45 7 100 7 l98 0
18 -47z m2813 -246 l32 -33 -24 -89 c-67 -246 -208 -487 -396 -675 -116 -116
-284 -240 -301 -223 -13 13 -89 143 -89 153 0 4 29 46 65 93 84 112 116 165
185 314 l57 122 94 62 c64 42 133 102 214 185 66 67 122 123 126 123 3 1 19
-14 37 -32z m-1948 -129 c240 -140 338 -197 391 -227 55 -31 57 -33 68 -89 12
-64 26 -192 36 -328 l7 -91 -124 -50 c-141 -58 -221 -84 -330 -109 l-78 -18
-52 25 c-68 31 -236 124 -309 171 l-57 36 -36 109 c-40 121 -52 190 -62 343
l-7 106 39 16 c22 9 116 50 209 91 94 42 177 76 185 76 8 1 62 -27 120 -61z
m756 -772 c88 0 209 3 270 7 l110 8 47 -77 c26 -42 47 -80 47 -83 0 -10 -180
-94 -266 -124 -166 -59 -260 -72 -509 -72 -185 1 -244 4 -300 18 -148 37 -143
35 -149 67 -19 98 -25 86 56 105 113 26 248 71 360 120 81 34 111 43 139 38
20 -3 108 -6 195 -7z"/>
</g>
</svg>
