<?xml version="1.0" encoding="UTF-8" standalone="no"?>
<svg
   xmlns:dc="http://purl.org/dc/elements/1.1/"
   xmlns:cc="http://creativecommons.org/ns#"
   xmlns:rdf="http://www.w3.org/1999/02/22-rdf-syntax-ns#"
   xmlns:svg="http://www.w3.org/2000/svg"
   xmlns="http://www.w3.org/2000/svg"
   viewBox="0 0 491.51999 476.06668"
   height="476.06668"
   width="491.51999"
   xml:space="preserve"
   id="svg2"
   version="1.1"><metadata
     id="metadata8"><rdf:RDF><cc:Work
         rdf:about=""><dc:format>image/svg+xml</dc:format><dc:type
           rdf:resource="http://purl.org/dc/dcmitype/StillImage" /></cc:Work></rdf:RDF></metadata><defs
     id="defs6" /><g
     transform="matrix(1.3333333,0,0,-1.3333333,0,476.06667)"
     id="g10"><g
       transform="scale(0.1)"
       id="g12"><path
         id="path14"
         style="fill:#100f0d;fill-opacity:1;fill-rule:nonzero;stroke:none"
         d="m 1843.2,2310.68 c 86.23,0 164.31,-34.97 220.82,-91.48 56.52,-56.52 91.48,-134.6 91.48,-220.83 0,-86.24 -34.96,-164.32 -91.48,-220.83 -56.51,-56.52 -134.59,-91.47 -220.82,-91.47 -86.24,0 -164.32,34.95 -220.83,91.47 -56.52,56.51 -91.48,134.59 -91.48,220.83 0,86.23 34.96,164.31 91.48,220.83 56.51,56.51 134.59,91.48 220.83,91.48" /><path
         id="path16"
         style="fill:#191716;fill-opacity:1;fill-rule:evenodd;stroke:none"
         d="M 593.949,1856.02 1804.48,3019.88 c 21.72,20.9 56.02,20.66 77.45,-0.22 l 0.02,-0.02 0.34,-0.33 1197.82,-1163.51 0.36,-0.36 39.14,-35.03 c 12.27,-10.98 18.52,-26.19 18.52,-41.46 h 0.24 V 55.8594 C 3138.37,25.0117 3113.36,0 3082.51,0 h -857.79 v 1047.7 c 0,30.85 -25.01,55.86 -55.86,55.86 h -651.32 c -30.85,0 -55.86,-25.01 -55.86,-55.86 V 0 H 603.883 c -30.848,0 -55.86,25.0117 -55.86,55.8594 V 1788.27 c 0,17.28 7.856,32.74 20.184,42.98 l 25.742,24.77" /><path
         id="path18"
         style="fill:#191716;fill-opacity:1;fill-rule:evenodd;stroke:none"
         d="M 1843.2,3305.09 188.418,1733.69 c -44.625,-42.38 -115.2735,-40.63 -157.6992,3.96 -42.4454,44.62 -40.69927,115.36 3.9648,157.78 L 1766.33,3539.83 c 43.08,40.9 110.68,40.88 153.74,0 l 1731.64,-1644.4 c 44.67,-42.42 46.42,-113.16 3.96,-157.78 -42.42,-44.59 -113.06,-46.34 -157.69,-3.96 L 1843.2,3305.09" /></g></g></svg>